<mxfile host="65bd71144e">
    <diagram id="bpkOkg_YQw8nwezcgyr8" name="Page-1">
        <mxGraphModel dx="2732" dy="1654" grid="1" gridSize="10" guides="1" tooltips="1" connect="1" arrows="1" fold="1" page="1" pageScale="1" pageWidth="850" pageHeight="1100" math="0" shadow="0">
            <root>
                <mxCell id="0"/>
                <mxCell id="1" parent="0"/>
                <mxCell id="95" value="" style="rounded=0;whiteSpace=wrap;html=1;labelBackgroundColor=#;fontSize=14;fontColor=#000000;fillColor=none;strokeColor=#F0F0F0;dashed=1;" vertex="1" parent="1">
                    <mxGeometry x="-370" y="300" width="1190" height="1090" as="geometry"/>
                </mxCell>
                <mxCell id="2" value="&lt;b&gt;Администратор (преподаватель)&lt;/b&gt;&lt;br&gt;&lt;font style=&quot;font-size: 12px;&quot;&gt;[Person]&lt;br style=&quot;&quot;&gt;&lt;br&gt;&lt;br&gt;Пользователь с правами администратора&lt;br&gt;&lt;/font&gt;" style="rounded=1;whiteSpace=wrap;html=1;fontSize=14;fillColor=#76608a;strokeColor=#432D57;fontColor=#ffffff;" vertex="1" parent="1">
                    <mxGeometry x="155" y="14" width="185" height="130" as="geometry"/>
                </mxCell>
                <mxCell id="3" value="&lt;b&gt;Пользователь&lt;br&gt;&lt;/b&gt;&lt;span style=&quot;color: rgba(0, 0, 0, 0); font-family: monospace; font-size: 0px; text-align: start;&quot;&gt;%3CmxGraphModel%3E%3Croot%3E%3CmxCell%20id%3D%220%22%2F%3E%3CmxCell%20id%3D%221%22%20parent%3D%220%22%2F%3E%3CmxCell%20id%3D%222%22%20value%3D%22%26lt%3Bb%26gt%3B%26lt%3Bfont%20style%3D%26quot%3Bfont-size%3A%2014px%3B%26quot%3B%26gt%3B%D0%A1%D0%B8%D1%81%D1%82%D0%B5%D0%BC%D0%B0%20%D0%BE%D0%B1%D1%80%D0%B0%D0%B7%D0%BE%D0%B2%D0%B0%D1%82%D0%B5%D0%BB%D1%8C%D0%BD%D0%BE%D0%B3%D0%BE%20%D0%BC%D0%B5%D0%BD%D0%B5%D0%B4%D0%B6%D0%BC%D0%B5%D0%BD%D1%82%D0%B0%26lt%3B%2Ffont%26gt%3B%26lt%3B%2Fb%26gt%3B%26lt%3Bbr%26gt%3B%5BSoftware%20system%5D%26lt%3Bbr%26gt%3B%26lt%3Bbr%26gt%3B%26lt%3Bbr%26gt%3B%26lt%3Bfont%20style%3D%26quot%3Bfont-size%3A%2010px%3B%26quot%3B%26gt%3B%D0%9F%D0%BE%D0%B7%D0%B2%D0%BE%D0%BB%D1%8F%D0%B5%D1%82%20%D0%BF%D0%BE%D0%BB%D1%8C%D0%B7%D0%BE%D0%B2%D0%B0%D1%82%D0%B5%D0%BB%D1%8F%D0%BC%20%D1%85%D1%80%D0%B0%D0%BD%D0%B8%D1%82%D1%8C%20%D0%B8%D0%BD%D1%84%D0%BE%D1%80%D0%BC%D0%B0%D1%86%D0%B8%D1%8E%20%D0%BE%20%D1%81%D1%82%D1%83%D0%B4%D0%B5%D0%BD%D1%82%D0%B0%D1%85%20%D0%B8%20%D0%B8%D1%85%20%D1%83%D1%81%D0%BF%D0%B5%D0%B2%D0%B0%D0%B5%D0%BC%D0%BE%D1%81%D1%82%D0%B8%2C%20%D1%84%D0%BE%D1%80%D0%BC%D0%B8%D1%80%D0%BE%D0%B2%D0%B0%D1%82%D1%8C%20%D0%BE%D1%82%D1%87%D0%B5%D1%82%D1%8B%26lt%3B%2Ffont%26gt%3B%26amp%3Bnbsp%3B%22%20style%3D%22whiteSpace%3Dwrap%3Bhtml%3D1%3Baspect%3Dfixed%3BfillColor%3D%230050ef%3BfontColor%3D%23ffffff%3BstrokeColor%3D%23001DBC%3B%22%20vertex%3D%221%22%20parent%3D%221%22%3E%3CmxGeometry%20x%3D%22150%22%20y%3D%22277%22%20width%3D%22190%22%20height%3D%22190%22%20as%3D%22geometry%22%2F%3E%3C%2FmxCell%3E%3C%2Froot%3E%3C%2FmxGraphModel%3E&lt;/span&gt;&lt;b&gt;(родитель)&lt;br&gt;&lt;/b&gt;&lt;font style=&quot;font-size: 12px;&quot;&gt;[Person]&lt;br&gt;&lt;br&gt;Внешний пользователь&lt;/font&gt;" style="rounded=1;whiteSpace=wrap;html=1;fontSize=14;fillColor=#76608a;fontColor=#ffffff;strokeColor=#432D57;" vertex="1" parent="1">
                    <mxGeometry x="580" y="14" width="185" height="110" as="geometry"/>
                </mxCell>
                <mxCell id="4" value="&lt;b&gt;&lt;font style=&quot;font-size: 14px;&quot;&gt;Портал преподавателя&lt;/font&gt;&lt;/b&gt;&lt;br&gt;[Container: Single page Application]&lt;br&gt;&lt;br&gt;&lt;br&gt;&lt;span style=&quot;font-size: 10px;&quot;&gt;Браузерное приложение, позволяющее просматривать и изменять данные о студенческой успеваемости&lt;/span&gt;" style="whiteSpace=wrap;html=1;aspect=fixed;fillColor=#0050ef;fontColor=#ffffff;strokeColor=#001DBC;" vertex="1" parent="1">
                    <mxGeometry x="143" y="472" width="170" height="170" as="geometry"/>
                </mxCell>
                <mxCell id="5" value="&lt;b&gt;&lt;font style=&quot;font-size: 14px;&quot;&gt;Портал родителя&lt;/font&gt;&lt;/b&gt;&lt;br&gt;[Container: Single page Application]&lt;br&gt;&lt;br&gt;&lt;br&gt;&lt;span style=&quot;font-size: 10px;&quot;&gt;Браузерное приложение, позволяющее просматривать&amp;nbsp; данные о студенческой успеваемости&lt;/span&gt;" style="whiteSpace=wrap;html=1;aspect=fixed;fillColor=#0050ef;fontColor=#ffffff;strokeColor=#001DBC;" vertex="1" parent="1">
                    <mxGeometry x="367" y="472" width="170" height="170" as="geometry"/>
                </mxCell>
                <mxCell id="6" value="&lt;b style=&quot;font-size: 14px;&quot;&gt;Портал общения&lt;/b&gt;&lt;span style=&quot;font-size: 14px;&quot;&gt;&lt;b&gt;&lt;br&gt;&lt;/b&gt;&lt;/span&gt;[Container:Single page Application]&lt;br&gt;&lt;br&gt;&lt;br&gt;&lt;span style=&quot;font-size: 10px;&quot;&gt;Браузерное приложение, позволяющее родителям и преподавателям общаться между собой&lt;/span&gt;" style="whiteSpace=wrap;html=1;aspect=fixed;fillColor=#0050ef;fontColor=#ffffff;strokeColor=#001DBC;" vertex="1" parent="1">
                    <mxGeometry x="595" y="472" width="170" height="170" as="geometry"/>
                </mxCell>
                <mxCell id="8" value="&lt;font style=&quot;font-size: 14px;&quot;&gt;&lt;b&gt;API Gateway&lt;br&gt;&lt;/b&gt;&lt;/font&gt;[Container: Service]&lt;br&gt;&lt;br&gt;Сервис, отвечающий за контроль доступа и роутинг" style="rounded=0;whiteSpace=wrap;html=1;fillColor=#0050ef;fontColor=#ffffff;strokeColor=#001DBC;" vertex="1" parent="1">
                    <mxGeometry x="-80" y="728" width="845" height="82" as="geometry"/>
                </mxCell>
                <mxCell id="10" value="" style="endArrow=classic;html=1;fontSize=10;entryX=0.363;entryY=-0.012;entryDx=0;entryDy=0;strokeColor=#FFFFFF;exitX=0.5;exitY=1;exitDx=0;exitDy=0;entryPerimeter=0;" edge="1" parent="1" source="4" target="8">
                    <mxGeometry width="50" height="50" relative="1" as="geometry">
                        <mxPoint x="218" y="650" as="sourcePoint"/>
                        <mxPoint x="215" y="783" as="targetPoint"/>
                    </mxGeometry>
                </mxCell>
                <mxCell id="11" value="API calls to&lt;br&gt;[REST/HTTPS]&amp;nbsp;" style="edgeLabel;html=1;align=center;verticalAlign=middle;resizable=0;points=[];fontSize=12;fontColor=#FFFFFF;labelBackgroundColor=#333333;" vertex="1" connectable="0" parent="10">
                    <mxGeometry x="-0.3001" relative="1" as="geometry">
                        <mxPoint x="1" y="14" as="offset"/>
                    </mxGeometry>
                </mxCell>
                <mxCell id="15" value="" style="endArrow=classic;html=1;fontSize=10;entryX=0.631;entryY=-0.004;entryDx=0;entryDy=0;strokeColor=#FFFFFF;exitX=0.5;exitY=1;exitDx=0;exitDy=0;entryPerimeter=0;" edge="1" parent="1" source="5" target="8">
                    <mxGeometry width="50" height="50" relative="1" as="geometry">
                        <mxPoint x="405" y="680" as="sourcePoint"/>
                        <mxPoint x="429.50000000000045" y="870" as="targetPoint"/>
                    </mxGeometry>
                </mxCell>
                <mxCell id="16" value="API calls to&lt;br&gt;[REST/HTTPS]&amp;nbsp;" style="edgeLabel;html=1;align=center;verticalAlign=middle;resizable=0;points=[];fontSize=12;fontColor=#FFFFFF;labelBackgroundColor=#333333;" vertex="1" connectable="0" parent="15">
                    <mxGeometry x="-0.3001" relative="1" as="geometry">
                        <mxPoint x="1" y="14" as="offset"/>
                    </mxGeometry>
                </mxCell>
                <mxCell id="17" value="" style="endArrow=classic;html=1;fontSize=10;entryX=0.899;entryY=-0.021;entryDx=0;entryDy=0;strokeColor=#FFFFFF;exitX=0.5;exitY=1;exitDx=0;exitDy=0;entryPerimeter=0;" edge="1" parent="1" source="6" target="8">
                    <mxGeometry width="50" height="50" relative="1" as="geometry">
                        <mxPoint x="238" y="670" as="sourcePoint"/>
                        <mxPoint x="262.50000000000045" y="860" as="targetPoint"/>
                    </mxGeometry>
                </mxCell>
                <mxCell id="18" value="API calls to&lt;br&gt;[REST/HTTPS]&amp;nbsp;" style="edgeLabel;html=1;align=center;verticalAlign=middle;resizable=0;points=[];fontSize=12;fontColor=#FFFFFF;labelBackgroundColor=#333333;" vertex="1" connectable="0" parent="17">
                    <mxGeometry x="-0.3001" relative="1" as="geometry">
                        <mxPoint x="1" y="14" as="offset"/>
                    </mxGeometry>
                </mxCell>
                <mxCell id="20" value="&lt;b style=&quot;font-size: 14px;&quot;&gt;API отчетов&lt;br&gt;&lt;/b&gt;[Container: Service]&lt;br&gt;&lt;br&gt;- Генерация отчетов&lt;br&gt;" style="rounded=0;whiteSpace=wrap;html=1;fillColor=#0050ef;fontColor=#ffffff;strokeColor=#001DBC;" vertex="1" parent="1">
                    <mxGeometry x="-80" y="900" width="170" height="130" as="geometry"/>
                </mxCell>
                <mxCell id="22" value="&lt;b style=&quot;font-size: 14px;&quot;&gt;API форумов&lt;br&gt;&lt;/b&gt;[Container: Service]&lt;br&gt;&lt;br&gt;- Управление сообщениями&lt;br&gt;- Поиск по сообщениям" style="rounded=0;whiteSpace=wrap;html=1;fillColor=#0050ef;fontColor=#ffffff;strokeColor=#001DBC;" vertex="1" parent="1">
                    <mxGeometry x="367.5" y="900" width="172.5" height="130" as="geometry"/>
                </mxCell>
                <mxCell id="23" value="&lt;b style=&quot;font-size: 14px;&quot;&gt;API студенческой успеваемости&lt;br&gt;&lt;/b&gt;[Container: Service]&lt;br&gt;&lt;br&gt;- Управление данными об успеваемости" style="rounded=0;whiteSpace=wrap;html=1;fillColor=#0050ef;fontColor=#ffffff;strokeColor=#001DBC;" vertex="1" parent="1">
                    <mxGeometry x="143" y="900" width="167" height="130" as="geometry"/>
                </mxCell>
                <mxCell id="26" value="" style="endArrow=classic;html=1;fontSize=10;strokeColor=#FFFFFF;" edge="1" parent="1">
                    <mxGeometry width="50" height="50" relative="1" as="geometry">
                        <mxPoint y="810" as="sourcePoint"/>
                        <mxPoint y="900" as="targetPoint"/>
                    </mxGeometry>
                </mxCell>
                <mxCell id="27" value="API calls to&lt;br&gt;[REST/HTTPS]&amp;nbsp;" style="edgeLabel;html=1;align=center;verticalAlign=middle;resizable=0;points=[];fontSize=12;fontColor=#FFFFFF;labelBackgroundColor=#333333;" vertex="1" connectable="0" parent="26">
                    <mxGeometry x="-0.3001" relative="1" as="geometry">
                        <mxPoint x="1" y="14" as="offset"/>
                    </mxGeometry>
                </mxCell>
                <mxCell id="28" value="&lt;b&gt;&lt;font style=&quot;font-size: 14px;&quot;&gt;Портал отчетов&amp;nbsp;&lt;/font&gt;&lt;/b&gt;&lt;br&gt;[Container: Single page Application]&lt;br&gt;&lt;br&gt;&lt;br&gt;&lt;span style=&quot;font-size: 10px;&quot;&gt;Браузерное приложение, позволяющее конфигурировать, запрашивать и просматривать отчеты&lt;/span&gt;" style="whiteSpace=wrap;html=1;aspect=fixed;fillColor=#0050ef;fontColor=#ffffff;strokeColor=#001DBC;" vertex="1" parent="1">
                    <mxGeometry x="-85" y="472" width="170" height="170" as="geometry"/>
                </mxCell>
                <mxCell id="29" value="БД готовых отчетов" style="shape=cylinder3;whiteSpace=wrap;html=1;boundedLbl=1;backgroundOutline=1;size=15;fontSize=14;fillColor=#0050ef;fontColor=#ffffff;strokeColor=#001DBC;" vertex="1" parent="1">
                    <mxGeometry x="-20" y="1267" width="115" height="100" as="geometry"/>
                </mxCell>
                <mxCell id="30" value="БД пользователей&lt;span style=&quot;color: rgba(0, 0, 0, 0); font-family: monospace; font-size: 0px; text-align: start;&quot;&gt;%3CmxGraphModel%3E%3Croot%3E%3CmxCell%20id%3D%220%22%2F%3E%3CmxCell%20id%3D%221%22%20parent%3D%220%22%2F%3E%3CmxCell%20id%3D%222%22%20value%3D%22%D0%91%D0%94%20%D0%B3%D0%BE%D1%82%D0%BE%D0%B2%D1%8B%D1%85%20%D0%BE%D1%82%D1%87%D0%B5%D1%82%D0%BE%D0%B2%22%20style%3D%22shape%3Dcylinder3%3BwhiteSpace%3Dwrap%3Bhtml%3D1%3BboundedLbl%3D1%3BbackgroundOutline%3D1%3Bsize%3D15%3BfontSize%3D14%3BfillColor%3D%230050ef%3BfontColor%3D%23ffffff%3BstrokeColor%3D%23001DBC%3B%22%20vertex%3D%221%22%20parent%3D%221%22%3E%3CmxGeometry%20x%3D%2215%22%20y%3D%22770%22%20width%3D%22115%22%20height%3D%22160%22%20as%3D%22geometry%22%2F%3E%3C%2FmxCell%3E%3C%2Froot%3E%3C%2FmxGraphModel%3E&lt;/span&gt;" style="shape=cylinder3;whiteSpace=wrap;html=1;boundedLbl=1;backgroundOutline=1;size=15;fontSize=14;fillColor=#0050ef;fontColor=#ffffff;strokeColor=#001DBC;" vertex="1" parent="1">
                    <mxGeometry x="670" y="1267" width="115" height="100" as="geometry"/>
                </mxCell>
                <mxCell id="31" value="БД студенческой успеваемости&lt;span style=&quot;color: rgba(0, 0, 0, 0); font-family: monospace; font-size: 0px; text-align: start;&quot;&gt;%3CmxGraphModel%3E%3Croot%3E%3CmxCell%20id%3D%220%22%2F%3E%3CmxCell%20id%3D%221%22%20parent%3D%220%22%2F%3E%3CmxCell%20id%3D%222%22%20value%3D%22%D0%91%D0%94%20%D0%B3%D0%BE%D1%82%D0%BE%D0%B2%D1%8B%D1%85%20%D0%BE%D1%82%D1%87%D0%B5%D1%82%D0%BE%D0%B2%22%20style%3D%22shape%3Dcylinder3%3BwhiteSpace%3Dwrap%3Bhtml%3D1%3BboundedLbl%3D1%3BbackgroundOutline%3D1%3Bsize%3D15%3BfontSize%3D14%3BfillColor%3D%230050ef%3BfontColor%3D%23ffffff%3BstrokeColor%3D%23001DBC%3B%22%20vertex%3D%221%22%20parent%3D%221%22%3E%3CmxGeometry%20x%3D%2215%22%20y%3D%22770%22%20width%3D%22115%22%20height%3D%22160%22%20as%3D%22geometry%22%2F%3E%3C%2FmxCell%3E%3C%2Froot%3E%3C%2FmxGraphModel%3E&lt;/span&gt;" style="shape=cylinder3;whiteSpace=wrap;html=1;boundedLbl=1;backgroundOutline=1;size=15;fontSize=14;fillColor=#0050ef;fontColor=#ffffff;strokeColor=#001DBC;" vertex="1" parent="1">
                    <mxGeometry x="210" y="1267" width="115" height="100" as="geometry"/>
                </mxCell>
                <mxCell id="33" value="&lt;font style=&quot;font-size: 14px;&quot;&gt;&lt;b&gt;Auth&lt;br&gt;&lt;/b&gt;&lt;/font&gt;[Software system]&lt;br&gt;&lt;br&gt;&lt;span style=&quot;font-size: 10px;&quot;&gt;Внешний Identity provider (Yandex)&lt;/span&gt;" style="whiteSpace=wrap;html=1;fillColor=#647687;fontColor=#ffffff;strokeColor=#314354;imageAspect=0;" vertex="1" parent="1">
                    <mxGeometry x="-120" y="180" width="170" height="80" as="geometry"/>
                </mxCell>
                <mxCell id="34" value="" style="endArrow=classic;html=1;fontSize=10;entryX=0.5;entryY=1;entryDx=0;entryDy=0;strokeColor=#FFFFFF;exitX=0.5;exitY=0;exitDx=0;exitDy=0;" edge="1" parent="1" source="28" target="33">
                    <mxGeometry width="50" height="50" relative="1" as="geometry">
                        <mxPoint x="228" y="660" as="sourcePoint"/>
                        <mxPoint x="302.50000000000045" y="740" as="targetPoint"/>
                        <Array as="points">
                            <mxPoint y="470"/>
                            <mxPoint x="-35" y="460"/>
                        </Array>
                    </mxGeometry>
                </mxCell>
                <mxCell id="35" value="Authenticates using" style="edgeLabel;html=1;align=center;verticalAlign=middle;resizable=0;points=[];fontSize=12;fontColor=#FFFFFF;labelBackgroundColor=#333333;" vertex="1" connectable="0" parent="34">
                    <mxGeometry x="-0.3001" relative="1" as="geometry">
                        <mxPoint y="-60" as="offset"/>
                    </mxGeometry>
                </mxCell>
                <mxCell id="36" value="" style="endArrow=classic;html=1;fontSize=10;entryX=0.5;entryY=1;entryDx=0;entryDy=0;strokeColor=#FFFFFF;exitX=0.25;exitY=0;exitDx=0;exitDy=0;" edge="1" parent="1" source="4" target="33">
                    <mxGeometry width="50" height="50" relative="1" as="geometry">
                        <mxPoint x="30" y="490" as="sourcePoint"/>
                        <mxPoint x="-95" y="310" as="targetPoint"/>
                        <Array as="points">
                            <mxPoint x="178" y="460"/>
                            <mxPoint x="-35" y="460"/>
                        </Array>
                    </mxGeometry>
                </mxCell>
                <mxCell id="38" value="" style="endArrow=classic;html=1;fontSize=10;entryX=0.5;entryY=1;entryDx=0;entryDy=0;strokeColor=#FFFFFF;exitX=0.5;exitY=0;exitDx=0;exitDy=0;" edge="1" parent="1" source="5" target="33">
                    <mxGeometry width="50" height="50" relative="1" as="geometry">
                        <mxPoint x="187.5" y="490" as="sourcePoint"/>
                        <mxPoint x="-52.5" y="310" as="targetPoint"/>
                        <Array as="points">
                            <mxPoint x="440" y="450"/>
                            <mxPoint x="-35" y="450"/>
                        </Array>
                    </mxGeometry>
                </mxCell>
                <mxCell id="40" value="&lt;span style=&quot;font-size: 14px;&quot;&gt;&lt;b&gt;Email system&lt;br&gt;&lt;/b&gt;&lt;/span&gt;[Software system]&lt;br&gt;&lt;br&gt;&lt;span style=&quot;font-size: 10px;&quot;&gt;Почтовая система (MS Exchange server)&lt;/span&gt;" style="whiteSpace=wrap;html=1;fillColor=#647687;fontColor=#ffffff;strokeColor=#314354;imageAspect=0;" vertex="1" parent="1">
                    <mxGeometry x="-320" y="180" width="170" height="80" as="geometry"/>
                </mxCell>
                <mxCell id="41" value="" style="endArrow=classic;html=1;fontSize=10;entryX=0.5;entryY=1;entryDx=0;entryDy=0;strokeColor=#FFFFFF;exitX=0.5;exitY=0;exitDx=0;exitDy=0;" edge="1" parent="1" source="6" target="33">
                    <mxGeometry width="50" height="50" relative="1" as="geometry">
                        <mxPoint x="450" y="490" as="sourcePoint"/>
                        <mxPoint x="-10" y="310" as="targetPoint"/>
                        <Array as="points">
                            <mxPoint x="680" y="440"/>
                            <mxPoint x="-35" y="440"/>
                        </Array>
                    </mxGeometry>
                </mxCell>
                <mxCell id="43" value="" style="endArrow=classic;html=1;fontSize=10;entryX=0.082;entryY=1.038;entryDx=0;entryDy=0;strokeColor=#FFFFFF;exitX=0;exitY=0.5;exitDx=0;exitDy=0;entryPerimeter=0;" edge="1" parent="1" source="8" target="33">
                    <mxGeometry width="50" height="50" relative="1" as="geometry">
                        <mxPoint x="60" y="780" as="sourcePoint"/>
                        <mxPoint x="-65" y="600" as="targetPoint"/>
                        <Array as="points">
                            <mxPoint x="-106" y="769"/>
                        </Array>
                    </mxGeometry>
                </mxCell>
                <mxCell id="44" value="Validates&amp;nbsp;using" style="edgeLabel;html=1;align=center;verticalAlign=middle;resizable=0;points=[];fontSize=12;fontColor=#FFFFFF;labelBackgroundColor=#333333;" vertex="1" connectable="0" parent="43">
                    <mxGeometry x="-0.3001" relative="1" as="geometry">
                        <mxPoint y="72" as="offset"/>
                    </mxGeometry>
                </mxCell>
                <mxCell id="45" value="&lt;b style=&quot;font-size: 14px;&quot;&gt;Сервис уведомлений&lt;br&gt;&lt;/b&gt;[Container: Service]&lt;br&gt;&lt;br&gt;- Направляет уведомления по электронной почте&amp;nbsp;" style="rounded=0;whiteSpace=wrap;html=1;fillColor=#0050ef;fontColor=#ffffff;strokeColor=#001DBC;" vertex="1" parent="1">
                    <mxGeometry x="-320" y="898" width="170" height="130" as="geometry"/>
                </mxCell>
                <mxCell id="46" value="" style="endArrow=classic;html=1;fontSize=10;entryX=0.5;entryY=1;entryDx=0;entryDy=0;strokeColor=#FFFFFF;exitX=0.5;exitY=0;exitDx=0;exitDy=0;" edge="1" parent="1" source="45" target="40">
                    <mxGeometry width="50" height="50" relative="1" as="geometry">
                        <mxPoint x="-125" y="850" as="sourcePoint"/>
                        <mxPoint x="-250" y="670" as="targetPoint"/>
                    </mxGeometry>
                </mxCell>
                <mxCell id="47" value="Sends email using" style="edgeLabel;html=1;align=center;verticalAlign=middle;resizable=0;points=[];fontSize=12;fontColor=#FFFFFF;labelBackgroundColor=#333333;" vertex="1" connectable="0" parent="46">
                    <mxGeometry x="-0.3001" relative="1" as="geometry">
                        <mxPoint x="1" y="14" as="offset"/>
                    </mxGeometry>
                </mxCell>
                <mxCell id="48" value="" style="endArrow=classic;html=1;fontSize=10;entryX=0;entryY=0.5;entryDx=0;entryDy=0;strokeColor=#FFFFFF;exitX=0.5;exitY=0;exitDx=0;exitDy=0;" edge="1" parent="1" source="40" target="2">
                    <mxGeometry width="50" height="50" relative="1" as="geometry">
                        <mxPoint x="155" y="240" as="sourcePoint"/>
                        <mxPoint x="30" y="60" as="targetPoint"/>
                        <Array as="points">
                            <mxPoint x="-235" y="79"/>
                        </Array>
                    </mxGeometry>
                </mxCell>
                <mxCell id="49" value="Sends emails to" style="edgeLabel;html=1;align=center;verticalAlign=middle;resizable=0;points=[];fontSize=12;fontColor=#FFFFFF;labelBackgroundColor=#333333;" vertex="1" connectable="0" parent="48">
                    <mxGeometry x="-0.3001" relative="1" as="geometry">
                        <mxPoint x="4" y="-10" as="offset"/>
                    </mxGeometry>
                </mxCell>
                <mxCell id="50" value="" style="endArrow=classic;html=1;fontSize=10;entryX=0.5;entryY=1;entryDx=0;entryDy=0;strokeColor=#FFFFFF;exitX=0.75;exitY=0;exitDx=0;exitDy=0;" edge="1" parent="1" source="40" target="3">
                    <mxGeometry width="50" height="50" relative="1" as="geometry">
                        <mxPoint x="340" y="250" as="sourcePoint"/>
                        <mxPoint x="165" y="89" as="targetPoint"/>
                        <Array as="points">
                            <mxPoint x="-192" y="160"/>
                            <mxPoint x="673" y="160"/>
                        </Array>
                    </mxGeometry>
                </mxCell>
                <mxCell id="51" value="Sends emails to" style="edgeLabel;html=1;align=center;verticalAlign=middle;resizable=0;points=[];fontSize=12;fontColor=#FFFFFF;labelBackgroundColor=#333333;" vertex="1" connectable="0" parent="50">
                    <mxGeometry x="-0.3001" relative="1" as="geometry">
                        <mxPoint x="-211" y="-10" as="offset"/>
                    </mxGeometry>
                </mxCell>
                <mxCell id="52" value="Очередь уведомлений&lt;br&gt;&lt;span style=&quot;font-size: 12px;&quot;&gt;[Container: Queue]&lt;/span&gt;" style="rounded=1;whiteSpace=wrap;html=1;labelBackgroundColor=#;fontSize=14;fontColor=#ffffff;fillColor=#0050ef;strokeColor=#001DBC;" vertex="1" parent="1">
                    <mxGeometry x="-320" y="1124" width="172.5" height="60" as="geometry"/>
                </mxCell>
                <mxCell id="53" value="" style="endArrow=classic;html=1;fontSize=10;exitX=0.5;exitY=1;exitDx=0;exitDy=0;entryX=1;entryY=0.5;entryDx=0;entryDy=0;rounded=1;dashed=1;strokeColor=#FFFFFF;" edge="1" parent="1" source="20" target="52">
                    <mxGeometry width="50" height="50" relative="1" as="geometry">
                        <mxPoint x="620" y="950" as="sourcePoint"/>
                        <mxPoint x="620.25" y="1129" as="targetPoint"/>
                        <Array as="points">
                            <mxPoint x="5" y="1150"/>
                        </Array>
                    </mxGeometry>
                </mxCell>
                <mxCell id="54" value="&lt;span style=&quot;&quot;&gt;Sends&lt;br&gt;&lt;/span&gt;" style="edgeLabel;html=1;align=center;verticalAlign=middle;resizable=0;points=[];fontSize=12;fontColor=#FFFFFF;labelBackgroundColor=#333333;" vertex="1" connectable="0" parent="53">
                    <mxGeometry x="-0.3001" relative="1" as="geometry">
                        <mxPoint x="-5" y="-56" as="offset"/>
                    </mxGeometry>
                </mxCell>
                <mxCell id="55" value="" style="endArrow=classic;html=1;fontSize=10;exitX=0.5;exitY=1;exitDx=0;exitDy=0;rounded=1;dashed=1;strokeColor=#FFFFFF;entryX=1;entryY=0.5;entryDx=0;entryDy=0;" edge="1" parent="1" source="22" target="52">
                    <mxGeometry width="50" height="50" relative="1" as="geometry">
                        <mxPoint x="269.38" y="1000" as="sourcePoint"/>
                        <mxPoint x="420" y="1030" as="targetPoint"/>
                        <Array as="points">
                            <mxPoint x="454" y="1150"/>
                        </Array>
                    </mxGeometry>
                </mxCell>
                <mxCell id="56" value="&lt;span style=&quot;&quot;&gt;Sends&lt;br&gt;&lt;/span&gt;" style="edgeLabel;html=1;align=center;verticalAlign=middle;resizable=0;points=[];fontSize=12;fontColor=#FFFFFF;labelBackgroundColor=#333333;" vertex="1" connectable="0" parent="55">
                    <mxGeometry x="-0.3001" relative="1" as="geometry">
                        <mxPoint x="130" y="-91" as="offset"/>
                    </mxGeometry>
                </mxCell>
                <mxCell id="57" value="" style="endArrow=classic;html=1;fontSize=10;exitX=0.5;exitY=1;exitDx=0;exitDy=0;entryX=1;entryY=0.5;entryDx=0;entryDy=0;rounded=1;dashed=1;strokeColor=#FFFFFF;" edge="1" parent="1" source="23" target="52">
                    <mxGeometry width="50" height="50" relative="1" as="geometry">
                        <mxPoint x="215" y="1010" as="sourcePoint"/>
                        <mxPoint x="171.25" y="1070" as="targetPoint"/>
                        <Array as="points">
                            <mxPoint x="227" y="1150"/>
                        </Array>
                    </mxGeometry>
                </mxCell>
                <mxCell id="58" value="&lt;span style=&quot;&quot;&gt;Sends&lt;br&gt;&lt;/span&gt;" style="edgeLabel;html=1;align=center;verticalAlign=middle;resizable=0;points=[];fontSize=12;fontColor=#FFFFFF;labelBackgroundColor=#333333;" vertex="1" connectable="0" parent="57">
                    <mxGeometry x="-0.3001" relative="1" as="geometry">
                        <mxPoint x="54" y="-81" as="offset"/>
                    </mxGeometry>
                </mxCell>
                <mxCell id="59" value="" style="endArrow=classic;html=1;fontSize=10;exitX=0.5;exitY=0;exitDx=0;exitDy=0;entryX=0.5;entryY=1;entryDx=0;entryDy=0;rounded=1;dashed=1;strokeColor=#FFFFFF;" edge="1" parent="1" source="52" target="45">
                    <mxGeometry width="50" height="50" relative="1" as="geometry">
                        <mxPoint x="205" y="1000" as="sourcePoint"/>
                        <mxPoint x="161.25" y="1060" as="targetPoint"/>
                    </mxGeometry>
                </mxCell>
                <mxCell id="60" value="&lt;span style=&quot;&quot;&gt;to&lt;br&gt;&lt;/span&gt;" style="edgeLabel;html=1;align=center;verticalAlign=middle;resizable=0;points=[];fontSize=12;fontColor=#FFFFFF;labelBackgroundColor=#333333;" vertex="1" connectable="0" parent="59">
                    <mxGeometry x="-0.3001" relative="1" as="geometry">
                        <mxPoint x="-1" y="-14" as="offset"/>
                    </mxGeometry>
                </mxCell>
                <mxCell id="61" value="" style="endArrow=classic;html=1;fontSize=10;entryX=0.5;entryY=0;entryDx=0;entryDy=0;strokeColor=#FFFFFF;entryPerimeter=0;" edge="1" parent="1" target="29">
                    <mxGeometry width="50" height="50" relative="1" as="geometry">
                        <mxPoint x="38" y="1030" as="sourcePoint"/>
                        <mxPoint x="205" y="870" as="targetPoint"/>
                    </mxGeometry>
                </mxCell>
                <mxCell id="62" value="Reads from and writes to&lt;br&gt;[SQL/TCP]&amp;nbsp;" style="edgeLabel;html=1;align=center;verticalAlign=middle;resizable=0;points=[];fontSize=12;fontColor=#FFFFFF;labelBackgroundColor=#333333;" vertex="1" connectable="0" parent="61">
                    <mxGeometry x="-0.3001" relative="1" as="geometry">
                        <mxPoint x="2" y="107" as="offset"/>
                    </mxGeometry>
                </mxCell>
                <mxCell id="63" value="" style="endArrow=classic;html=1;fontSize=10;entryX=0.316;entryY=0.015;entryDx=0;entryDy=0;strokeColor=#FFFFFF;exitX=0.75;exitY=1;exitDx=0;exitDy=0;entryPerimeter=0;" edge="1" parent="1" source="20" target="31">
                    <mxGeometry width="50" height="50" relative="1" as="geometry">
                        <mxPoint x="235" y="1000" as="sourcePoint"/>
                        <mxPoint x="47.5" y="1230" as="targetPoint"/>
                        <Array as="points">
                            <mxPoint x="50" y="1180"/>
                            <mxPoint x="246" y="1180"/>
                        </Array>
                    </mxGeometry>
                </mxCell>
                <mxCell id="64" value="Reads from&lt;br&gt;[SQL/TCP]&amp;nbsp;" style="edgeLabel;html=1;align=center;verticalAlign=middle;resizable=0;points=[];fontSize=12;fontColor=#FFFFFF;labelBackgroundColor=#333333;" vertex="1" connectable="0" parent="63">
                    <mxGeometry x="-0.3001" relative="1" as="geometry">
                        <mxPoint x="121" y="20" as="offset"/>
                    </mxGeometry>
                </mxCell>
                <mxCell id="65" value="БД форумных сообщений&lt;span style=&quot;color: rgba(0, 0, 0, 0); font-family: monospace; font-size: 0px; text-align: start;&quot;&gt;%3CmxGraphModel%3E%3Croot%3E%3CmxCell%20id%3D%220%22%2F%3E%3CmxCell%20id%3D%221%22%20parent%3D%220%22%2F%3E%3CmxCell%20id%3D%222%22%20value%3D%22%D0%91%D0%94%20%D0%B3%D0%BE%D1%82%D0%BE%D0%B2%D1%8B%D1%85%20%D0%BE%D1%82%D1%87%D0%B5%D1%82%D0%BE%D0%B2%22%20style%3D%22shape%3Dcylinder3%3BwhiteSpace%3Dwrap%3Bhtml%3D1%3BboundedLbl%3D1%3BbackgroundOutline%3D1%3Bsize%3D15%3BfontSize%3D14%3BfillColor%3D%230050ef%3BfontColor%3D%23ffffff%3BstrokeColor%3D%23001DBC%3B%22%20vertex%3D%221%22%20parent%3D%221%22%3E%3CmxGeometry%20x%3D%2215%22%20y%3D%22770%22%20width%3D%22115%22%20height%3D%22160%22%20as%3D%22geometry%22%2F%3E%3C%2FmxCell%3E%3C%2Froot%3E%3C%2FmxGraphModel%3E&lt;/span&gt;" style="shape=cylinder3;whiteSpace=wrap;html=1;boundedLbl=1;backgroundOutline=1;size=15;fontSize=14;fillColor=#0050ef;fontColor=#ffffff;strokeColor=#001DBC;" vertex="1" parent="1">
                    <mxGeometry x="440" y="1267" width="115" height="100" as="geometry"/>
                </mxCell>
                <mxCell id="66" value="" style="endArrow=classic;html=1;fontSize=10;entryX=0.5;entryY=0;entryDx=0;entryDy=0;strokeColor=#FFFFFF;exitX=0.75;exitY=1;exitDx=0;exitDy=0;entryPerimeter=0;" edge="1" parent="1" source="22" target="65">
                    <mxGeometry width="50" height="50" relative="1" as="geometry">
                        <mxPoint x="235" y="1000" as="sourcePoint"/>
                        <mxPoint x="47.5" y="1230" as="targetPoint"/>
                    </mxGeometry>
                </mxCell>
                <mxCell id="67" value="Reads from and writes to&lt;br&gt;[SQL/TCP]&amp;nbsp;" style="edgeLabel;html=1;align=center;verticalAlign=middle;resizable=0;points=[];fontSize=12;fontColor=#FFFFFF;labelBackgroundColor=#333333;" vertex="1" connectable="0" parent="66">
                    <mxGeometry x="-0.3001" relative="1" as="geometry">
                        <mxPoint y="107" as="offset"/>
                    </mxGeometry>
                </mxCell>
                <mxCell id="68" value="" style="endArrow=classic;html=1;fontSize=10;entryX=0.5;entryY=0;entryDx=0;entryDy=0;strokeColor=#FFFFFF;exitX=0.75;exitY=1;exitDx=0;exitDy=0;entryPerimeter=0;" edge="1" parent="1" source="23" target="31">
                    <mxGeometry width="50" height="50" relative="1" as="geometry">
                        <mxPoint x="245" y="1010" as="sourcePoint"/>
                        <mxPoint x="57.5" y="1240" as="targetPoint"/>
                    </mxGeometry>
                </mxCell>
                <mxCell id="69" value="Reads from and writes to&lt;br&gt;[SQL/TCP]&amp;nbsp;" style="edgeLabel;html=1;align=center;verticalAlign=middle;resizable=0;points=[];fontSize=12;fontColor=#FFFFFF;labelBackgroundColor=#333333;" vertex="1" connectable="0" parent="68">
                    <mxGeometry x="-0.3001" relative="1" as="geometry">
                        <mxPoint x="32" y="11" as="offset"/>
                    </mxGeometry>
                </mxCell>
                <mxCell id="70" value="&lt;b style=&quot;font-size: 14px;&quot;&gt;API управление пользователями&lt;br&gt;&lt;/b&gt;[Container: Service]&lt;br&gt;&lt;br&gt;- Регистрация новых пользователей&lt;br&gt;- Выдача ролей и прав" style="rounded=0;whiteSpace=wrap;html=1;fillColor=#0050ef;fontColor=#ffffff;strokeColor=#001DBC;" vertex="1" parent="1">
                    <mxGeometry x="595" y="900" width="175" height="130" as="geometry"/>
                </mxCell>
                <mxCell id="71" value="" style="endArrow=classic;html=1;fontSize=10;entryX=0.5;entryY=0;entryDx=0;entryDy=0;strokeColor=#FFFFFF;exitX=0.631;exitY=1.02;exitDx=0;exitDy=0;exitPerimeter=0;" edge="1" parent="1" source="8" target="22">
                    <mxGeometry width="50" height="50" relative="1" as="geometry">
                        <mxPoint x="290" y="830" as="sourcePoint"/>
                        <mxPoint x="205" y="870" as="targetPoint"/>
                    </mxGeometry>
                </mxCell>
                <mxCell id="72" value="API calls to&lt;br&gt;[REST/HTTPS]&amp;nbsp;" style="edgeLabel;html=1;align=center;verticalAlign=middle;resizable=0;points=[];fontSize=12;fontColor=#FFFFFF;labelBackgroundColor=#333333;" vertex="1" connectable="0" parent="71">
                    <mxGeometry x="-0.3001" relative="1" as="geometry">
                        <mxPoint x="1" y="14" as="offset"/>
                    </mxGeometry>
                </mxCell>
                <mxCell id="73" value="" style="endArrow=classic;html=1;fontSize=10;entryX=0.5;entryY=0;entryDx=0;entryDy=0;strokeColor=#FFFFFF;" edge="1" parent="1" target="23">
                    <mxGeometry width="50" height="50" relative="1" as="geometry">
                        <mxPoint x="227" y="810" as="sourcePoint"/>
                        <mxPoint x="215" y="880" as="targetPoint"/>
                    </mxGeometry>
                </mxCell>
                <mxCell id="74" value="API calls to&lt;br&gt;[REST/HTTPS]&amp;nbsp;" style="edgeLabel;html=1;align=center;verticalAlign=middle;resizable=0;points=[];fontSize=12;fontColor=#FFFFFF;labelBackgroundColor=#333333;" vertex="1" connectable="0" parent="73">
                    <mxGeometry x="-0.3001" relative="1" as="geometry">
                        <mxPoint x="1" y="14" as="offset"/>
                    </mxGeometry>
                </mxCell>
                <mxCell id="75" value="" style="endArrow=classic;html=1;fontSize=10;entryX=0.5;entryY=0;entryDx=0;entryDy=0;strokeColor=#FFFFFF;exitX=0.899;exitY=1.004;exitDx=0;exitDy=0;exitPerimeter=0;" edge="1" parent="1" source="8" target="70">
                    <mxGeometry width="50" height="50" relative="1" as="geometry">
                        <mxPoint x="322.5" y="840" as="sourcePoint"/>
                        <mxPoint x="225" y="890" as="targetPoint"/>
                    </mxGeometry>
                </mxCell>
                <mxCell id="76" value="API calls to&lt;br&gt;[REST/HTTPS]&amp;nbsp;" style="edgeLabel;html=1;align=center;verticalAlign=middle;resizable=0;points=[];fontSize=12;fontColor=#FFFFFF;labelBackgroundColor=#333333;" vertex="1" connectable="0" parent="75">
                    <mxGeometry x="-0.3001" relative="1" as="geometry">
                        <mxPoint x="1" y="14" as="offset"/>
                    </mxGeometry>
                </mxCell>
                <mxCell id="77" value="" style="endArrow=classic;html=1;fontSize=10;entryX=0.5;entryY=0;entryDx=0;entryDy=0;strokeColor=#FFFFFF;exitX=0.75;exitY=1;exitDx=0;exitDy=0;entryPerimeter=0;" edge="1" parent="1" source="70" target="30">
                    <mxGeometry width="50" height="50" relative="1" as="geometry">
                        <mxPoint x="565" y="1000" as="sourcePoint"/>
                        <mxPoint x="440" y="1230" as="targetPoint"/>
                    </mxGeometry>
                </mxCell>
                <mxCell id="78" value="Reads from and writes to&lt;br&gt;[SQL/TCP]&amp;nbsp;" style="edgeLabel;html=1;align=center;verticalAlign=middle;resizable=0;points=[];fontSize=12;fontColor=#FFFFFF;labelBackgroundColor=#333333;" vertex="1" connectable="0" parent="77">
                    <mxGeometry x="-0.3001" relative="1" as="geometry">
                        <mxPoint x="-7" y="107" as="offset"/>
                    </mxGeometry>
                </mxCell>
                <mxCell id="79" value="" style="endArrow=classic;html=1;fontSize=10;strokeColor=#FFFFFF;exitX=0.5;exitY=1;exitDx=0;exitDy=0;entryX=0.5;entryY=0;entryDx=0;entryDy=0;" edge="1" parent="1" source="2" target="4">
                    <mxGeometry width="50" height="50" relative="1" as="geometry">
                        <mxPoint x="690" y="490" as="sourcePoint"/>
                        <mxPoint x="260" y="480" as="targetPoint"/>
                        <Array as="points">
                            <mxPoint x="230" y="190"/>
                        </Array>
                    </mxGeometry>
                </mxCell>
                <mxCell id="80" value="View and edit student's data" style="edgeLabel;html=1;align=center;verticalAlign=middle;resizable=0;points=[];fontSize=12;fontColor=#FFFFFF;labelBackgroundColor=#333333;" vertex="1" connectable="0" parent="79">
                    <mxGeometry x="-0.3001" relative="1" as="geometry">
                        <mxPoint x="-8" y="41" as="offset"/>
                    </mxGeometry>
                </mxCell>
                <mxCell id="82" value="" style="endArrow=classic;html=1;fontSize=10;strokeColor=#FFFFFF;exitX=0.5;exitY=1;exitDx=0;exitDy=0;entryX=1;entryY=0;entryDx=0;entryDy=0;" edge="1" parent="1" source="2" target="28">
                    <mxGeometry width="50" height="50" relative="1" as="geometry">
                        <mxPoint x="150" y="110" as="sourcePoint"/>
                        <mxPoint x="40" y="480" as="targetPoint"/>
                        <Array as="points">
                            <mxPoint x="85" y="190"/>
                        </Array>
                    </mxGeometry>
                </mxCell>
                <mxCell id="83" value="Request and&lt;br&gt;view reports" style="edgeLabel;html=1;align=center;verticalAlign=middle;resizable=0;points=[];fontSize=12;fontColor=#FFFFFF;labelBackgroundColor=#333333;" vertex="1" connectable="0" parent="82">
                    <mxGeometry x="-0.3001" relative="1" as="geometry">
                        <mxPoint x="-9" y="112" as="offset"/>
                    </mxGeometry>
                </mxCell>
                <mxCell id="84" value="" style="endArrow=classic;html=1;fontSize=10;strokeColor=#FFFFFF;exitX=0.5;exitY=1;exitDx=0;exitDy=0;entryX=0.25;entryY=0;entryDx=0;entryDy=0;" edge="1" parent="1" source="2" target="6">
                    <mxGeometry width="50" height="50" relative="1" as="geometry">
                        <mxPoint x="211.25" y="154" as="sourcePoint"/>
                        <mxPoint x="630" y="470" as="targetPoint"/>
                        <Array as="points">
                            <mxPoint x="638" y="210"/>
                        </Array>
                    </mxGeometry>
                </mxCell>
                <mxCell id="85" value="View and send messages" style="edgeLabel;html=1;align=center;verticalAlign=middle;resizable=0;points=[];fontSize=12;fontColor=#FFFFFF;labelBackgroundColor=#333333;" vertex="1" connectable="0" parent="84">
                    <mxGeometry x="-0.3001" relative="1" as="geometry">
                        <mxPoint x="65" y="8" as="offset"/>
                    </mxGeometry>
                </mxCell>
                <mxCell id="86" value="" style="endArrow=classic;html=1;fontSize=10;entryX=0.75;entryY=0;entryDx=0;entryDy=0;strokeColor=#FFFFFF;exitX=0.75;exitY=1;exitDx=0;exitDy=0;" edge="1" parent="1" source="3" target="6">
                    <mxGeometry width="50" height="50" relative="1" as="geometry">
                        <mxPoint x="303.75" y="154" as="sourcePoint"/>
                        <mxPoint x="647.5" y="490" as="targetPoint"/>
                    </mxGeometry>
                </mxCell>
                <mxCell id="87" value="View and send messages" style="edgeLabel;html=1;align=center;verticalAlign=middle;resizable=0;points=[];fontSize=12;fontColor=#FFFFFF;labelBackgroundColor=#333333;" vertex="1" connectable="0" parent="86">
                    <mxGeometry x="-0.3001" relative="1" as="geometry">
                        <mxPoint y="132" as="offset"/>
                    </mxGeometry>
                </mxCell>
                <mxCell id="88" value="" style="endArrow=classic;html=1;fontSize=10;entryX=0.75;entryY=0;entryDx=0;entryDy=0;strokeColor=#FFFFFF;exitX=0.75;exitY=1;exitDx=0;exitDy=0;" edge="1" parent="1" source="3" target="5">
                    <mxGeometry width="50" height="50" relative="1" as="geometry">
                        <mxPoint x="435.63" y="110" as="sourcePoint"/>
                        <mxPoint x="779.38" y="446" as="targetPoint"/>
                        <Array as="points">
                            <mxPoint x="495" y="320"/>
                        </Array>
                    </mxGeometry>
                </mxCell>
                <mxCell id="89" value="View student's data" style="edgeLabel;html=1;align=center;verticalAlign=middle;resizable=0;points=[];fontSize=12;fontColor=#FFFFFF;labelBackgroundColor=#333333;" vertex="1" connectable="0" parent="88">
                    <mxGeometry x="-0.3001" relative="1" as="geometry">
                        <mxPoint x="-111" y="151" as="offset"/>
                    </mxGeometry>
                </mxCell>
                <mxCell id="91" value="" style="endArrow=classic;html=1;fontSize=10;entryX=0.093;entryY=0.004;entryDx=0;entryDy=0;strokeColor=#FFFFFF;exitX=0.5;exitY=1;exitDx=0;exitDy=0;entryPerimeter=0;" edge="1" parent="1" source="28" target="8">
                    <mxGeometry width="50" height="50" relative="1" as="geometry">
                        <mxPoint x="228" y="660" as="sourcePoint"/>
                        <mxPoint x="141.24999999999955" y="740" as="targetPoint"/>
                    </mxGeometry>
                </mxCell>
                <mxCell id="92" value="API calls to&lt;br&gt;[REST/HTTPS]&amp;nbsp;" style="edgeLabel;html=1;align=center;verticalAlign=middle;resizable=0;points=[];fontSize=12;fontColor=#FFFFFF;labelBackgroundColor=#333333;" vertex="1" connectable="0" parent="91">
                    <mxGeometry x="-0.3001" relative="1" as="geometry">
                        <mxPoint x="1" y="14" as="offset"/>
                    </mxGeometry>
                </mxCell>
                <mxCell id="93" value="" style="endArrow=classic;html=1;fontSize=10;exitX=0.5;exitY=1;exitDx=0;exitDy=0;entryX=1;entryY=0.5;entryDx=0;entryDy=0;rounded=1;dashed=1;strokeColor=#FFFFFF;" edge="1" parent="1" source="70" target="52">
                    <mxGeometry width="50" height="50" relative="1" as="geometry">
                        <mxPoint x="236.5" y="1040" as="sourcePoint"/>
                        <mxPoint x="-137.5" y="1170" as="targetPoint"/>
                        <Array as="points">
                            <mxPoint x="683" y="1150"/>
                        </Array>
                    </mxGeometry>
                </mxCell>
                <mxCell id="94" value="&lt;span style=&quot;&quot;&gt;Sends&lt;br&gt;&lt;/span&gt;" style="edgeLabel;html=1;align=center;verticalAlign=middle;resizable=0;points=[];fontSize=12;fontColor=#FFFFFF;labelBackgroundColor=#333333;" vertex="1" connectable="0" parent="93">
                    <mxGeometry x="-0.3001" relative="1" as="geometry">
                        <mxPoint x="207" y="-91" as="offset"/>
                    </mxGeometry>
                </mxCell>
                <mxCell id="97" value="Система образовательного менеджмента" style="rounded=0;whiteSpace=wrap;html=1;dashed=1;labelBackgroundColor=none;fontSize=14;fillColor=none;strokeColor=none;align=left;fontColor=#FFFFFF;" vertex="1" parent="1">
                    <mxGeometry x="-358.75" y="1330" width="250" height="60" as="geometry"/>
                </mxCell>
            </root>
        </mxGraphModel>
    </diagram>
</mxfile>